<?xml version="1.0" standalone="no"?>
<!DOCTYPE svg PUBLIC "-//W3C//DTD SVG 20010904//EN"
 "http://www.w3.org/TR/2001/REC-SVG-20010904/DTD/svg10.dtd">
<svg version="1.0" xmlns="http://www.w3.org/2000/svg"
 width="800.000000pt" height="800.000000pt" viewBox="0 0 800.000000 800.000000"
 preserveAspectRatio="xMidYMid meet">

<g transform="translate(0.000000,800.000000) scale(0.100000,-0.100000)"
fill="#006B7F" stroke="none">
<path d="M2590 6349 c-160 -11 -312 -28 -385 -44 -38 -8 -92 -19 -120 -24 -45
-9 -119 -28 -290 -75 -90 -25 -322 -104 -369 -126 -22 -10 -54 -33 -71 -50
l-30 -31 -3 -1806 -2 -1805 21 -38 c26 -46 83 -80 136 -80 45 0 86 11 288 80
170 57 387 113 532 135 54 8 132 21 173 27 44 7 180 12 330 13 227 0 269 -3
380 -24 126 -23 326 -76 345 -91 6 -4 28 -13 50 -20 74 -24 233 -112 305 -169
62 -49 80 -58 133 -66 37 -6 55 -3 91 14 24 12 47 28 50 36 3 8 12 15 20 15 8
0 19 6 23 13 4 8 31 27 58 42 28 16 57 34 65 40 28 22 224 103 312 129 104 31
260 60 413 77 137 15 513 5 594 -15 31 -8 81 -17 111 -21 91 -10 245 -44 385
-85 130 -38 160 -48 280 -90 97 -34 130 -41 172 -38 64 6 116 42 135 95 19 56
19 3571 0 3623 -16 43 -56 76 -125 102 -75 28 -310 106 -354 117 -21 6 -81 21
-133 35 -52 14 -120 31 -150 36 -30 6 -84 17 -120 25 -36 8 -112 20 -170 26
-58 5 -145 14 -195 19 -347 36 -827 -29 -1105 -147 -67 -29 -245 -116 -250
-122 -3 -4 -17 -12 -32 -18 -16 -7 -28 -17 -28 -23 0 -12 -57 -13 -64 -1 -9
14 -132 82 -226 125 -161 73 -432 150 -595 168 -127 14 -472 24 -585 17z m605
-364 c95 -19 309 -78 360 -100 113 -49 152 -67 165 -76 8 -5 29 -16 45 -24 17
-8 42 -24 57 -37 l28 -23 2 -1533 3 -1532 -23 0 c-13 0 -36 6 -50 14 -126 68
-458 159 -657 179 -241 25 -777 8 -895 -28 -25 -7 -70 -17 -100 -20 -30 -4
-75 -13 -100 -21 -25 -7 -74 -20 -110 -29 -135 -32 -182 -45 -209 -59 -21 -11
-31 -12 -40 -3 -8 8 -11 405 -11 1554 l0 1543 23 14 c78 49 571 168 817 196
129 15 591 5 695 -15z m2475 1 c30 -8 89 -19 130 -25 41 -6 129 -24 195 -42
66 -17 138 -35 160 -40 22 -6 82 -24 133 -41 88 -30 93 -33 103 -67 12 -42 9
-3065 -3 -3077 -4 -4 -40 2 -80 14 -40 11 -111 30 -158 42 -47 12 -107 28
-135 35 -27 8 -84 19 -125 25 -41 6 -88 15 -105 20 -48 16 -244 31 -475 37
-304 7 -474 -12 -745 -83 -70 -19 -258 -88 -297 -109 -14 -8 -36 -15 -47 -15
l-21 0 0 1533 0 1534 49 31 c27 18 54 32 61 32 7 0 18 6 24 13 12 15 128 68
216 99 109 39 327 88 445 102 22 2 171 3 330 1 216 -3 304 -8 345 -19z"/>
<path d="M825 5964 c-45 -23 -66 -45 -86 -89 -18 -38 -19 -120 -19 -2035 0
-1279 4 -2008 10 -2030 11 -41 61 -94 103 -109 20 -8 987 -11 3199 -11 2918 0
3173 1 3205 16 19 9 46 33 61 52 l27 35 3 2016 c2 1389 0 2027 -8 2052 -6 21
-27 52 -49 72 -74 67 -195 55 -252 -24 l-24 -34 -5 -1920 c-3 -1056 -6 -1921
-8 -1922 -1 -2 -1329 -3 -2951 -3 -2349 0 -2951 3 -2958 13 -4 6 -9 865 -11
1907 -2 1222 -6 1906 -13 1926 -26 82 -146 129 -224 88z"/>
</g>
</svg>
