<?xml version="1.0" standalone="no"?>
<!DOCTYPE svg PUBLIC "-//W3C//DTD SVG 20010904//EN"
 "http://www.w3.org/TR/2001/REC-SVG-20010904/DTD/svg10.dtd">
<svg version="1.0" xmlns="http://www.w3.org/2000/svg"
 width="800.000000pt" height="800.000000pt" viewBox="0 0 800.000000 800.000000"
 preserveAspectRatio="xMidYMid meet">

<g transform="translate(0.000000,800.000000) scale(0.100000,-0.100000)"
fill="#d49313" stroke="none">
<path d="M3835 7543 c-33 -2 -100 -10 -150 -18 -549 -95 -891 -468 -770 -840
31 -95 59 -143 126 -218 48 -54 164 -150 192 -160 9 -3 9 -7 1 -18 -33 -42
-144 -273 -144 -298 0 -35 31 -61 72 -61 23 0 392 188 434 222 7 5 43 2 90 -8
124 -27 399 -24 534 4 370 78 641 271 732 520 17 44 21 81 22 167 0 103 -2
115 -33 187 -90 212 -293 374 -581 461 -154 47 -354 70 -525 60z"/>
<path d="M2325 6293 c-302 -47 -507 -269 -507 -549 0 -241 172 -455 427 -529
79 -23 219 -23 305 -1 185 49 333 181 402 358 29 74 31 248 4 332 -56 175
-215 324 -396 371 -60 16 -188 26 -235 18z"/>
<path d="M5658 6290 c-81 -13 -182 -55 -255 -106 -277 -196 -311 -572 -73
-813 114 -115 252 -172 420 -173 160 -1 292 50 410 159 117 109 172 232 172
388 0 149 -51 271 -161 382 -126 126 -331 191 -513 163z"/>
<path d="M1701 4980 c-116 -42 -206 -121 -257 -225 l-29 -60 0 -815 0 -815 33
-68 c43 -88 120 -165 206 -206 36 -17 66 -32 66 -33 0 -2 -114 -2 -252 0 -139
1 -258 2 -264 2 -6 0 -16 26 -22 58 -6 31 -27 134 -47 227 -19 94 -42 202 -50
240 -8 39 -28 135 -45 215 -17 80 -37 177 -45 215 -15 75 -65 318 -121 585
-19 91 -39 190 -45 220 -20 104 -44 143 -114 189 -33 21 -52 26 -110 26 -83 0
-140 -27 -179 -84 -45 -67 -50 -104 -27 -216 28 -132 88 -422 106 -510 8 -38
30 -146 50 -240 19 -93 42 -201 50 -240 14 -69 52 -253 115 -550 36 -176 58
-281 72 -349 24 -122 90 -186 206 -202 29 -3 52 -7 52 -8 0 -1 -18 -47 -41
-101 -23 -55 -69 -170 -104 -255 -34 -85 -84 -207 -110 -270 -26 -63 -67 -164
-91 -225 -25 -60 -51 -123 -58 -140 -39 -86 -66 -167 -66 -195 0 -90 90 -154
182 -129 48 12 85 53 115 126 13 32 28 67 33 78 12 26 47 112 125 305 35 85
95 234 134 330 40 96 99 244 133 328 l62 152 417 0 417 0 21 -52 c12 -29 26
-62 31 -73 5 -11 30 -72 56 -135 25 -63 75 -187 111 -275 l65 -160 -18 -50
c-9 -27 -20 -54 -24 -60 -4 -5 -12 -23 -18 -40 -6 -16 -20 -55 -31 -85 -40
-105 -19 -208 59 -294 107 -116 281 -137 416 -51 63 40 98 91 148 210 20 50
41 99 46 110 5 11 34 81 65 155 31 74 60 144 65 155 5 11 34 81 65 155 127
306 157 376 165 395 5 11 34 81 65 155 31 74 60 144 65 155 5 11 34 81 65 155
31 74 62 149 70 165 70 161 39 304 -87 395 -81 59 -92 60 -652 60 -571 0 -579
1 -676 67 -73 50 -110 114 -161 277 -48 155 -98 311 -146 455 -18 58 -32 111
-31 118 2 8 88 -130 192 -307 104 -177 206 -340 227 -364 22 -25 60 -52 89
-65 50 -21 53 -22 658 -19 l607 3 50 31 c171 105 159 342 -23 431 l-57 28
-487 3 -486 3 -173 292 c-236 399 -224 375 -138 287 41 -41 124 -127 185 -192
l111 -116 7 153 c8 196 -3 279 -49 359 -51 91 -123 155 -226 197 -51 22 -69
23 -359 26 -282 3 -309 2 -359 -17z m1232 -2256 c3 -3 2 -14 -3 -23 -10 -19
-23 -48 -80 -186 -22 -55 -45 -109 -50 -120 -5 -11 -34 -81 -65 -155 -84 -200
-88 -210 -94 -210 -6 0 -122 289 -121 303 0 4 13 7 29 7 38 0 103 24 139 50
92 68 102 207 20 296 l-41 44 130 0 c71 0 132 -3 136 -6z"/>
<path d="M5805 4993 c-151 -36 -276 -142 -326 -277 -21 -55 -23 -74 -21 -250
2 -104 5 -192 7 -195 3 -2 52 45 109 105 218 230 257 269 242 239 -8 -16 -93
-163 -189 -325 l-175 -295 -488 -5 c-472 -5 -491 -6 -535 -26 -55 -26 -109
-78 -133 -129 -24 -50 -24 -149 -1 -199 23 -48 107 -123 153 -136 55 -15 1193
-14 1244 2 83 25 120 73 337 442 113 190 206 344 208 342 6 -6 -67 -268 -117
-416 -94 -280 -137 -379 -188 -433 -29 -31 -97 -73 -145 -90 -21 -7 -217 -13
-582 -17 l-550 -5 -57 -29 c-66 -33 -107 -73 -140 -136 -19 -37 -23 -60 -23
-130 0 -86 9 -114 95 -305 5 -11 34 -81 65 -155 31 -74 60 -144 65 -155 5 -11
34 -81 65 -155 31 -74 60 -144 65 -155 5 -11 34 -81 65 -155 31 -74 60 -144
65 -155 5 -11 28 -65 50 -120 39 -95 61 -146 80 -190 5 -11 28 -65 50 -120 90
-217 109 -249 184 -299 164 -109 387 -47 471 131 44 91 35 150 -50 356 l-37
88 58 142 c31 78 64 160 74 182 10 22 48 115 85 208 l68 167 418 0 417 0 10
-27 c6 -16 43 -107 82 -203 39 -96 96 -236 126 -310 30 -74 59 -144 64 -155 5
-11 21 -49 35 -85 14 -36 30 -74 35 -85 10 -22 112 -273 140 -343 34 -87 104
-131 180 -113 117 26 140 115 70 266 -5 11 -34 83 -65 160 -30 77 -60 149 -65
160 -5 11 -21 49 -35 85 -14 36 -30 74 -35 85 -10 21 -87 212 -175 430 l-52
130 56 11 c72 13 112 35 149 80 34 41 40 61 87 289 18 88 50 239 70 335 19 96
42 204 49 240 7 36 29 135 47 220 l34 155 0 535 0 535 -43 3 c-56 4 -141 -34
-174 -79 -29 -39 -42 -76 -62 -175 -28 -135 -94 -454 -147 -709 -16 -77 -36
-171 -44 -210 -8 -38 -30 -144 -49 -235 -19 -91 -51 -244 -71 -340 -20 -96
-38 -187 -42 -202 -3 -16 -11 -28 -17 -28 -6 0 -125 -1 -264 -2 -138 -2 -252
-2 -252 -1 0 1 29 16 64 32 94 45 159 108 203 199 l38 76 9 735 c6 521 6 762
-2 823 -19 155 -100 267 -242 336 l-75 37 -300 2 c-165 0 -309 -1 -320 -4z
m-325 -2266 c0 -2 -18 -22 -40 -45 -43 -46 -55 -86 -48 -163 4 -35 14 -61 35
-87 36 -46 124 -92 175 -92 l38 0 -19 -47 c-56 -145 -107 -263 -112 -263 -3 0
-16 26 -29 58 -24 60 -55 133 -70 167 -5 11 -27 65 -50 120 -23 55 -45 109
-50 120 -32 71 -90 216 -90 224 0 7 46 11 130 11 72 0 130 -2 130 -3z"/>
</g>
</svg>
