<?xml version="1.0" standalone="no"?>
<!DOCTYPE svg PUBLIC "-//W3C//DTD SVG 20010904//EN"
 "http://www.w3.org/TR/2001/REC-SVG-20010904/DTD/svg10.dtd">
<svg version="1.0" xmlns="http://www.w3.org/2000/svg"
 width="800.000000pt" height="800.000000pt" viewBox="0 0 800.000000 800.000000"
 preserveAspectRatio="xMidYMid meet">

<g transform="translate(0.000000,800.000000) scale(0.100000,-0.100000)"
fill="#006B7F" stroke="none">
<path d="M949 7110 c-20 -10 -49 -36 -65 -57 l-29 -38 0 -2867 0 -2866 31 -39
c16 -21 50 -48 74 -60 l44 -23 2948 0 2949 0 49 25 c120 61 142 202 47 295
-66 64 149 60 -2944 60 l-2813 0 0 2718 c0 2623 -1 2718 -19 2757 -22 47 -64
89 -104 104 -44 17 -128 12 -168 -9z"/>
<path d="M5960 5741 c-44 -9 -90 -33 -111 -57 -48 -55 -64 -147 -35 -203 22
-41 80 -88 123 -100 21 -6 133 -11 248 -11 l210 0 -90 -88 c-49 -48 -268 -258
-485 -467 -217 -208 -510 -490 -650 -625 -140 -135 -338 -326 -439 -423 l-184
-176 -52 47 c-28 26 -201 191 -383 367 -188 181 -349 328 -370 337 -46 22
-111 23 -159 3 -19 -8 -90 -68 -157 -133 -66 -64 -218 -209 -336 -322 -118
-113 -271 -259 -340 -325 -118 -113 -205 -197 -450 -430 -297 -284 -309 -296
-325 -346 -13 -38 -14 -56 -5 -88 13 -48 59 -105 104 -128 38 -20 132 -21 167
-2 30 15 125 102 299 273 63 62 234 226 380 366 266 254 437 419 627 604 l102
99 38 -33 c21 -18 155 -146 298 -284 434 -420 449 -434 496 -446 46 -13 110
-7 146 13 12 7 117 104 235 217 287 275 661 634 838 805 80 77 208 201 285
275 273 262 362 348 508 491 82 79 153 146 158 147 5 2 9 -81 9 -205 0 -180 3
-213 19 -248 64 -143 265 -151 346 -15 19 34 20 52 23 480 2 245 0 464 -3 488
-7 48 -49 102 -99 130 -28 15 -79 17 -491 19 -253 1 -476 -2 -495 -6z"/>
</g>
</svg>
