<?xml version="1.0" standalone="no"?>
<!DOCTYPE svg PUBLIC "-//W3C//DTD SVG 20010904//EN"
 "http://www.w3.org/TR/2001/REC-SVG-20010904/DTD/svg10.dtd">
<svg version="1.0" xmlns="http://www.w3.org/2000/svg"
 width="800.000000pt" height="800.000000pt" viewBox="0 0 800.000000 800.000000"
 preserveAspectRatio="xMidYMid meet">

<g transform="translate(0.000000,800.000000) scale(0.100000,-0.100000)"
fill="#d49313" stroke="none">
<path d="M3895 7520 c-57 -11 -163 -55 -211 -88 -184 -123 -284 -314 -284
-541 0 -253 153 -486 380 -578 l70 -28 0 -487 0 -488 -877 0 c-980 0 -939 2
-1085 -71 -113 -57 -239 -182 -291 -289 -67 -138 -70 -158 -75 -527 l-3 -332
-72 -37 c-272 -140 -457 -397 -507 -706 -18 -111 -8 -331 19 -433 44 -161 133
-314 253 -432 86 -85 138 -124 233 -174 l70 -36 6 -334 c5 -269 9 -345 22
-390 47 -158 119 -265 247 -364 69 -53 96 -67 200 -102 l85 -28 1900 0 1900 0
95 33 c112 38 182 82 265 167 62 63 131 175 159 259 29 84 36 175 36 472 l0
292 53 22 c125 54 284 194 375 329 57 86 121 240 143 344 32 157 24 363 -21
504 -80 252 -259 466 -482 579 l-66 33 -5 333 c-4 355 -7 375 -60 491 -68 149
-179 264 -322 332 -49 23 -114 48 -143 54 -36 8 -318 11 -897 11 l-845 0 0
489 0 488 63 23 c124 45 257 164 315 284 103 208 105 387 7 591 -63 130 -164
228 -298 290 -113 51 -239 67 -352 45z m220 -331 c209 -78 261 -368 94 -524
-58 -54 -93 -70 -170 -80 -125 -16 -247 54 -306 173 -23 48 -28 70 -28 137 0
100 26 162 94 229 85 83 202 108 316 65z m1797 -2226 c106 -49 185 -157 208
-286 7 -35 9 -574 8 -1533 l-3 -1479 -23 -55 c-32 -77 -70 -129 -127 -172 -98
-74 46 -69 -2030 -66 l-1860 3 -47 22 c-59 27 -132 94 -165 151 -54 92 -53 42
-53 1628 0 941 4 1490 10 1524 15 79 48 136 115 199 106 98 -99 89 2040 88
l1880 -2 47 -22z m-4392 -1778 c0 -472 -2 -545 -15 -545 -29 0 -149 135 -193
218 -59 111 -72 160 -79 287 -10 209 49 366 189 508 42 42 82 77 87 77 8 0 11
-168 11 -545z m4988 487 c77 -74 132 -160 173 -270 29 -79 32 -98 33 -202 1
-143 -9 -192 -68 -322 -36 -80 -152 -215 -200 -234 -15 -6 -16 43 -16 540 0
311 4 546 9 546 5 0 36 -26 69 -58z"/>
<path d="M2790 4224 c-86 -18 -131 -37 -199 -83 -68 -47 -173 -157 -201 -211
-167 -328 -68 -697 234 -873 219 -128 501 -96 693 77 147 134 211 297 201 513
-4 88 -11 123 -37 193 -105 284 -399 448 -691 384z m250 -327 c64 -30 134
-106 159 -172 58 -155 -4 -319 -151 -400 -47 -27 -62 -30 -133 -29 -74 0 -85
3 -142 37 -112 67 -158 151 -157 284 1 60 6 84 33 138 26 53 44 73 94 109 96
68 198 79 297 33z"/>
<path d="M4996 4230 c-222 -40 -389 -183 -474 -408 -23 -60 -26 -81 -26 -212
-1 -132 1 -151 25 -216 72 -197 242 -354 430 -399 84 -19 218 -18 299 3 203
53 380 237 437 453 21 83 21 234 -1 318 -51 199 -211 373 -400 438 -78 26
-212 37 -290 23z m220 -331 c68 -32 118 -83 150 -151 58 -127 30 -285 -66
-372 -126 -114 -295 -112 -411 4 -66 66 -91 120 -97 207 -5 83 10 138 58 207
80 117 242 164 366 105z"/>
<path d="M3264 2539 c-60 -17 -104 -85 -104 -159 0 -34 32 -101 60 -125 22
-20 36 -20 785 -20 l763 0 27 25 c40 37 55 73 55 130 0 64 -30 113 -86 140
-39 19 -61 20 -755 19 -393 0 -728 -5 -745 -10z"/>
</g>
</svg>
